<svg id="Layer_1" data-name="Layer 1" xmlns="http://www.w3.org/2000/svg" viewBox="0 0 840 97"><defs><style>.cls-1{fill:#ff2d55;}</style></defs><title>slime</title><path class="cls-1" d="M0,0V65.33a2.12,2.12,0,0,0,2.19-2.83c-.56-2.65-2.1-7.33,6-7.28s9.93,5.13,9.93,6.93,0,12-1.26,16.37.42,5.17,1.82,4.68,2.38-1.26,1.54-3.06S18.7,73.3,19.12,68.71s-.7-11.47,8.25-11.29,10.49,5.94,19.17,5.85,14.27-5.85,18.75-3.33S70,71.32,70,75.73s-.7,15.33-2,18.8,3.92,2.74,4.76,1.17S72.28,93.08,72,90s-2.1-18.35,0-24.6,9.09-8.95,14.83-8.77,11.75,7.82,17.91,7.11,7.27-5.67,11.33-7,5.6,5.31,5.18,7.51,0,11.65-1.54,14.88-.84,5,1,4.72,3.22-1.12,2.1-2.43-1.26-8-.56-13.22,1-12.59,4.62-13.85,7.69,2.2,7.56,8-1.54,10.93-1.26,11.65,3.36.36,3.22-1.62-.42-5.08-.79-12.16c-.28-5.27,1.73-7.48,4.46-7.51s4.74,2.24,4.46,7.51c-.37,7.07-.65,10.18-.79,12.16s2.94,2.34,3.22,1.62-1.12-5.85-1.26-11.65,3.92-9.26,7.56-8,3.92,8.59,4.62,13.85.56,11.92-.56,13.22.28,2.16,2.1,2.43,2.52-1.48,1-4.72-1.12-12.68-1.54-14.88,1.12-8.81,5.18-7.51,5.18,6.25,11.33,7,12.17-6.93,17.91-7.11S206,59.18,208,65.43,208.33,87,208,90s-1.68,4.09-.84,5.67,6,2.29,4.76-1.17-2-14.39-2-18.8.28-13.27,4.76-15.78,10.07,3.24,18.75,3.33,10.21-5.67,19.17-5.85,7.83,6.7,8.25,11.29-.28,9.62-1.12,11.42.14,2.56,1.54,3.06,3.08-.27,1.82-4.68-1.26-14.57-1.26-16.37,1.82-6.88,9.93-6.93,6.58,4.63,6,7.28a2,2,0,0,0,1.57,2.74v.09l.31,0,.31,0v-.09a2,2,0,0,0,1.57-2.74c-.56-2.65-2.1-7.33,6-7.28s9.93,5.13,9.93,6.93,0,12-1.26,16.37.42,5.17,1.82,4.68,2.38-1.26,1.54-3.06-1.54-6.84-1.12-11.42-.7-11.47,8.25-11.29,10.49,5.94,19.17,5.85,14.27-5.85,18.75-3.33,4.76,11.38,4.76,15.78-.7,15.33-2,18.8,3.92,2.74,4.76,1.17-.56-2.61-.84-5.67-2.1-18.35,0-24.6,9.09-8.95,14.83-8.77,11.75,7.82,17.91,7.11,7.27-5.67,11.33-7,5.6,5.31,5.18,7.51,0,11.65-1.54,14.88-.84,5,1,4.72,3.22-1.12,2.1-2.43-1.26-8-.56-13.22,1-12.59,4.62-13.85,7.69,2.2,7.56,8-1.54,10.93-1.26,11.65,3.36.36,3.22-1.62-.42-5.08-.79-12.16c-.28-5.27,1.73-7.48,4.46-7.51s4.74,2.24,4.46,7.51c-.37,7.07-.65,10.18-.79,12.16s2.94,2.34,3.22,1.62-1.12-5.85-1.26-11.65,3.92-9.26,7.56-8,3.92,8.59,4.62,13.85.56,11.92-.56,13.22.28,2.16,2.1,2.43,2.52-1.48,1-4.72-1.12-12.68-1.54-14.88,1.12-8.81,5.18-7.51,5.18,6.25,11.33,7,12.17-6.93,17.91-7.11,12.73,2.52,14.83,8.77.28,21.54,0,24.6-1.68,4.09-.84,5.67,6,2.29,4.76-1.17-2-14.39-2-18.8.28-13.27,4.76-15.78,10.07,3.24,18.75,3.33,10.21-5.67,19.17-5.85,7.83,6.7,8.25,11.29-.28,9.62-1.12,11.42.14,2.56,1.54,3.06,3.08-.27,1.82-4.68-1.26-14.57-1.26-16.37,1.82-6.88,9.93-6.93,6.58,4.63,6,7.28a2,2,0,0,0,1.67,2.76v.06l.27,0,.26,0v-.06a2,2,0,0,0,1.71-2.76c-.57-2.65-2.14-7.33,6.13-7.28s10.11,5.13,10.11,6.93,0,12-1.28,16.37.43,5.17,1.85,4.68,2.42-1.26,1.57-3.06S578,73.3,578.42,68.71s-.71-11.47,8.4-11.29,10.68,5.94,19.51,5.85,14.53-5.85,19.09-3.33,4.84,11.38,4.84,15.78-.71,15.33-2,18.8,4,2.74,4.84,1.17-.57-2.61-.85-5.67-2.14-18.35,0-24.6,9.26-8.95,15.1-8.77,12,7.82,18.23,7.11,7.41-5.67,11.54-7,5.7,5.31,5.27,7.51,0,11.65-1.57,14.88-.85,5,1,4.72,3.28-1.12,2.14-2.43-1.28-8-.57-13.22,1-12.59,4.7-13.85,7.83,2.2,7.69,8-1.57,10.93-1.28,11.65,3.42.36,3.28-1.62-.43-5.08-.81-12.16c-.21-3.87.84-6.09,2.51-7,1.67.92,2.72,3.14,2.51,7-.38,7.07-.67,10.18-.81,12.16s3,2.34,3.28,1.62-1.14-5.85-1.28-11.65,4-9.26,7.69-8,4,8.59,4.7,13.85.57,11.92-.57,13.22.28,2.16,2.14,2.43,2.56-1.48,1-4.72S717,66.51,716.56,64.3s1.14-8.81,5.27-7.51,5.27,6.25,11.54,7,12.39-6.93,18.23-7.11,13,2.52,15.1,8.77S767,87,766.69,90s-1.71,4.09-.85,5.67S772,98,770.68,94.52s-2-14.39-2-18.8.28-13.27,4.84-15.78,10.25,3.24,19.09,3.33,10.4-5.67,19.51-5.85,8,6.7,8.4,11.29-.28,9.62-1.14,11.42.14,2.56,1.57,3.06,3.13-.27,1.85-4.68-1.28-14.57-1.28-16.37,1.85-6.88,10.11-6.93,6.69,4.63,6.13,7.28A2.13,2.13,0,0,0,840,65.33V0Z"/></svg>